<svg xmlns="http://www.w3.org/2000/svg" width="242" height="167.309" viewBox="0 0 242 167.309">
  <g id="C" transform="translate(-345.245 -355.601)">
    <g id="icon" transform="translate(367.797 356.128)">
      <g id="scroll" transform="translate(0 23.472)">
        <path id="Path_44" data-name="Path 44" d="M484.393,344.84c-.238,25.683-.178,58.1-.095,78.6v.593c0,.162,0,.325,0,.484v.181c.034,8.423.068,14.667.083,17.339,0,.2,0,.389,0,.552H367.024c-3.552,0-6.5-3.568-6.979-8.2l-.012-2.66-.007-2.434,0-.835-.015-3.937-.321-86.862c-.756-.635,3.752-29.015-16.25-29.854h119.04S484.771,304.026,484.393,344.84Z" transform="translate(-335.088 -307.713)" fill="#426aee"/>
        <g id="Group_17" data-name="Group 17" transform="translate(27.275 123.162)">
          <path id="Path_45" data-name="Path 45" d="M500.259,466.913c0,5.287-3.155,9.572-7.051,9.572H373.484c-3.553,0-6.5-3.567-6.98-8.2a11.679,11.679,0,0,1-.075-1.368c0-.438.022-.869.064-1.292.393-3.945,2.554-7.123,5.359-8.023a10.363,10.363,0,0,1,1.417-.094v-.166H493.208C497.1,457.338,500.259,461.627,500.259,466.913Z" transform="translate(-366.429 -457.338)" fill="#426aee" stroke="#150b27" stroke-miterlimit="10" stroke-width="2"/>
          <path id="Path_46" data-name="Path 46" d="M380.536,466.913c0,5.287-3.156,9.572-7.052,9.572-3.553,0-6.5-3.567-6.98-8.2a11.679,11.679,0,0,1-.075-1.368c0-.438.022-.869.064-1.292.393-3.945,2.554-7.123,5.359-8.023a5.012,5.012,0,0,1,1.417-.253,2.119,2.119,0,0,1,.216-.007C377.38,457.338,380.536,461.627,380.536,466.913Z" transform="translate(-366.429 -457.338)" fill="none"/>
          <path id="Path_47" data-name="Path 47" d="M380.323,467.127c0,5.027-3,9.1-6.706,9.1s-6.705-4.075-6.705-9.1c0-4.3,2.2-7.913,5.156-8.858a4.743,4.743,0,0,1,1.346-.24,1.839,1.839,0,0,1,.2-.008C377.323,458.021,380.323,462.1,380.323,467.127Z" transform="translate(-366.514 -457.459)" fill="#150b27"/>
        </g>
        <path id="Path_48" data-name="Path 48" d="M353.1,321.406c0,7.425-4.431,13.443-9.9,13.443-4.988,0-9.123-5.01-9.8-11.521a16.426,16.426,0,0,1-.106-1.921c0-.616.032-1.221.091-1.815.551-5.541,3.587-10,7.525-11.266a7.009,7.009,0,0,1,1.99-.356,2.852,2.852,0,0,1,.3-.011C348.674,307.958,353.1,313.981,353.1,321.406Z" transform="translate(-333.294 -307.756)" fill="#426aee"/>
        <g id="lines" transform="translate(43.115 38.056)">
          <line id="Line_6" data-name="Line 6" x2="91.452" transform="translate(0 28.214)" fill="none" stroke="#fff" stroke-miterlimit="10" stroke-width="2"/>
          <line id="Line_9" data-name="Line 9" x2="91.452" transform="translate(0 0)" fill="none" stroke="#fff" stroke-miterlimit="10" stroke-width="2"/>
        </g>
      </g>
      <g id="calligraphy_brush" data-name="calligraphy brush" transform="translate(90.797)">
        <g id="Group_21" data-name="Group 21" transform="translate(0)">
          <g id="brush" transform="translate(63.952 70.512)">
            <path id="Path_49" data-name="Path 49" d="M522.721,369.792c1.348-.071-3.367,4.139,6.329,6.425a34.713,34.713,0,0,0,13.085,1.4c4.929-.547,9.771-1.881,22.454-6.982,1.731-.177-5.525-3.3-18.658-4.688C534.052,364.528,516.089,363.449,522.721,369.792Z" transform="translate(-521.293 -364.86)" fill="#fff"/>
          </g>
          <g id="Group_19" data-name="Group 19">
            <path id="Path_51" data-name="Path 51" d="M511.842,349.817q-.059,4.989-.139,9.98c-12.052.108-49.675-9.618-66.136-66.594-.24-.036-5.42-27.059,2.073-5.937a194.3,194.3,0,0,0,22.621,35.113C471.481,324.05,489.762,345.205,511.842,349.817Z" transform="translate(-443.6 -279.197)" fill="#150b27" stroke="#fff" stroke-width="1"/>
          </g>
          <g id="Group_20" data-name="Group 20" transform="translate(29.515 55.195)" style="mix-blend-mode: luminosity;isolation: isolate">
            <path id="Path_52" data-name="Path 52" d="M486.469,355.085,485.92,355l-.057-.347a.134.134,0,0,1,.058-.119.19.19,0,0,1,.219.029q.5.41,1,.817l.067-.286a.7.7,0,0,1,.207-.33c.081-.049.248-.1.334-.035.1.083.07.173.022.2a1.075,1.075,0,0,0-.468.582l.564.457a2.908,2.908,0,0,1,1.059.132c.026.021.013.044-.01.059a.071.071,0,0,1-.046.013,4.227,4.227,0,0,0-.89-.013,2.782,2.782,0,0,0-.944.216l-.2-.291c-.042-.059-.039-.106,0-.128a.143.143,0,0,1,.17.006c.042.034.076.045.1.039l.467-.028Q487.013,355.531,486.469,355.085Zm5.1,2.106.241-.1c.064-.024.6-.212.837-.029.123.094-.03.212-.036.216a.7.7,0,0,1-.267,0,1.733,1.733,0,0,0-1.077.2.079.079,0,0,1-.092-.006c-.021-.017-.032-.041,0-.059l.2-.124q-.845-.659-1.679-1.323l-.473.291-.225-.262c-.076-.077-.079-.129-.031-.158a.168.168,0,0,1,.158,0c.088.038.112.024.3-.091q-.948-.755-1.884-1.52l-.365-.016.07-.324a.115.115,0,0,1,.046-.113.2.2,0,0,1,.218.012l.064.061a.214.214,0,0,0,.137.054l.955.022a.145.145,0,0,1,.045.02.047.047,0,0,1-.012.074l-.016.011a4.954,4.954,0,0,0-.914.128Q489.637,355.692,491.564,357.192Zm-2.7-.167-.559-.083c-.021-.116-.04-.231-.061-.347a.135.135,0,0,1,.062-.114.181.181,0,0,1,.215.023q.5.4,1.007.8c.017-.091.035-.181.053-.271a.605.605,0,0,1,.181-.342l.18-.072a.219.219,0,0,1,.163.031c.083.065.085.156.02.2a1.152,1.152,0,0,0-.432.589l.375.295.426.007a4.316,4.316,0,0,1,1.186.179.036.036,0,0,1,0,.063.1.1,0,0,1-.058.013,5.616,5.616,0,0,0-1.167-.059,3.666,3.666,0,0,0-1.2.2l-.179-.306c-.031-.058-.031-.105.011-.131a.149.149,0,0,1,.17.02l.1.047.412-.028Zm2.452-.416c-.019-.1-.037-.2-.056-.3q-1-.782-1.981-1.571l-.321.031c-.016-.093-.032-.186-.048-.279a.091.091,0,0,1,.049-.092.193.193,0,0,1,.141,0,.164.164,0,0,0,.112,0q.517-.319,1.032-.64c.069-.043.1-.029.333.086.037.03.023.077-.063.131l-.226.141q.968.773,1.948,1.538l.6-.378q-1.137-.883-2.256-1.778l-.3-.019c-.026-.1-.052-.2-.077-.308a.052.052,0,0,1,.026-.062.2.2,0,0,1,.179.011.162.162,0,0,0,.14.013q.521-.327,1.04-.657a.149.149,0,0,1,.134-.007c.207.1.268.13.13.218l-.224.142q1.122.892,2.261,1.772l.218-.14a.176.176,0,0,1,.134,0c.234.114.261.128.124.217Q492.855,355.652,491.32,356.609Zm.085-.432.662-.415q-.98-.766-1.948-1.538l-.663.409Q490.425,355.409,491.405,356.177Zm1.6-1.012q.352-.223.7-.449-1.138-.882-2.26-1.775l-.7.443Q491.869,354.279,493.008,355.164Z" transform="translate(-480.59 -347.35)" fill="#fff"/>
            <path id="Path_53" data-name="Path 53" d="M481.832,351.736c0-.123-.011-.245-.016-.368q-1-.854-1.985-1.717l-.314,0c-.02-.1-.04-.206-.061-.309,0-.021.009-.035.039-.052a.185.185,0,0,1,.184,0,.143.143,0,0,0,.115.016q1.274-.732,2.532-1.478a.165.165,0,0,1,.128,0c.221.132.243.151.132.216l-.226.134q.448.387.9.773.457-.272.909-.545l-.651-.556-.633-.1c-.018-.151-.036-.3-.054-.452-.009-.032.021-.066.063-.09a.188.188,0,0,1,.216.036q.612.53,1.232,1.055.522-.315,1.042-.633-.449-.379-.9-.76l-.63-.1c-.018-.151-.037-.3-.055-.451a.094.094,0,0,1,.05-.083.2.2,0,0,1,.23.028q1.693,1.457,3.429,2.888l-.13.142q-.874-.721-1.737-1.448-.52.319-1.042.635.537.454,1.077.905l-.131.141q-.562-.469-1.118-.942-.454.273-.91.546l.823.7.308-.185c.076-.045.156,0,.343.1.038.03.007.072-.081.124Q483.386,350.832,481.832,351.736Zm.084-1.99q-.452-.388-.9-.779-.5.293-1.008.583.45.393.9.783Q481.412,350.04,481.916,349.746Zm1.165-.688q-.452-.385-.9-.774-.49.29-.984.578.448.39.9.778Q482.589,349.349,483.08,349.057Zm-1.912,1.5q.411.354.824.707.505-.3,1.008-.592-.414-.351-.824-.7Q481.674,350.265,481.168,350.558Zm1.189-.695q.41.353.823.7.494-.292.984-.586-.413-.349-.824-.7Q482.851,349.573,482.358,349.863Zm3,1.539.655.542-.143.14-.693-.574q-.707.426-1.422.848.346.29.693.578l-.133.141q-.612-.509-1.219-1.02l-.609-.06c0-.133.005-.265.008-.4a.1.1,0,0,1,.058-.087.213.213,0,0,1,.227.025q.354.3.71.6.713-.421,1.421-.846l-.2-.163-.6-.059.006-.4c-.011-.032.014-.062.049-.083a.215.215,0,0,1,.232.02c.229.192.458.384.688.575q.768-.463,1.529-.93a11,11,0,0,0-1.119-.323.122.122,0,0,1-.06-.025c-.031-.026-.006-.071.016-.086a.094.094,0,0,1,.069-.01,10.086,10.086,0,0,1,2.319.63c.032.009.073-.007.129-.044a.206.206,0,0,1,.2-.009c.038.03.03.081,0,.155l-.209.343-.312-.189-.646-.3Q486.185,350.9,485.355,351.4Z" transform="translate(-479.457 -346.252)" fill="#fff"/>
          </g>
        </g>
      </g>
    </g>
    <text id="Kanri" transform="translate(345.245 492.148)" fill="#fff" font-size="63" font-family="Rockwell" letter-spacing="0.35em"><tspan x="0" y="0">Kanri</tspan></text>
  </g>
</svg>
